<mxfile host="Electron" agent="Mozilla/5.0 (Windows NT 10.0; Win64; x64) AppleWebKit/537.36 (KHTML, like Gecko) draw.io/28.0.6 Chrome/138.0.7204.100 Electron/37.2.3 Safari/537.36" version="28.0.6">
  <diagram name="Page-1" id="c7EHjPfoJ36Xr09bpNna">
    <mxGraphModel dx="1410" dy="717" grid="1" gridSize="10" guides="1" tooltips="1" connect="1" arrows="1" fold="1" page="1" pageScale="1" pageWidth="850" pageHeight="1100" math="0" shadow="0">
      <root>
        <mxCell id="0" />
        <mxCell id="1" parent="0" />
        <mxCell id="lBy6JVBBChG7RYKzFE5o-3" value="" style="edgeStyle=orthogonalEdgeStyle;rounded=0;orthogonalLoop=1;jettySize=auto;html=1;" edge="1" parent="1" source="lBy6JVBBChG7RYKzFE5o-1" target="lBy6JVBBChG7RYKzFE5o-2">
          <mxGeometry relative="1" as="geometry" />
        </mxCell>
        <mxCell id="lBy6JVBBChG7RYKzFE5o-1" value="Begin" style="ellipse;whiteSpace=wrap;html=1;" vertex="1" parent="1">
          <mxGeometry x="40" y="40" width="120" height="80" as="geometry" />
        </mxCell>
        <mxCell id="lBy6JVBBChG7RYKzFE5o-5" value="" style="edgeStyle=orthogonalEdgeStyle;rounded=0;orthogonalLoop=1;jettySize=auto;html=1;" edge="1" parent="1" source="lBy6JVBBChG7RYKzFE5o-2" target="lBy6JVBBChG7RYKzFE5o-4">
          <mxGeometry relative="1" as="geometry" />
        </mxCell>
        <mxCell id="lBy6JVBBChG7RYKzFE5o-2" value="Function MagicalBoneses" style="whiteSpace=wrap;html=1;" vertex="1" parent="1">
          <mxGeometry x="40" y="170" width="120" height="60" as="geometry" />
        </mxCell>
        <mxCell id="lBy6JVBBChG7RYKzFE5o-9" value="yes" style="edgeStyle=orthogonalEdgeStyle;rounded=0;orthogonalLoop=1;jettySize=auto;html=1;" edge="1" parent="1" source="lBy6JVBBChG7RYKzFE5o-4" target="lBy6JVBBChG7RYKzFE5o-8">
          <mxGeometry relative="1" as="geometry" />
        </mxCell>
        <mxCell id="lBy6JVBBChG7RYKzFE5o-134" value="no" style="edgeStyle=orthogonalEdgeStyle;rounded=0;orthogonalLoop=1;jettySize=auto;html=1;entryX=0.5;entryY=0;entryDx=0;entryDy=0;" edge="1" parent="1" source="lBy6JVBBChG7RYKzFE5o-4" target="lBy6JVBBChG7RYKzFE5o-133">
          <mxGeometry relative="1" as="geometry" />
        </mxCell>
        <mxCell id="lBy6JVBBChG7RYKzFE5o-4" value="&lt;div&gt;IF&lt;/div&gt;costomerPeriod &amp;gt;=10&lt;div&gt;and&lt;/div&gt;&lt;div&gt;numberOfRentals &amp;gt;=50 and &amp;lt;50&lt;/div&gt;" style="rhombus;whiteSpace=wrap;html=1;" vertex="1" parent="1">
          <mxGeometry x="20" y="280" width="160" height="120" as="geometry" />
        </mxCell>
        <mxCell id="lBy6JVBBChG7RYKzFE5o-149" style="edgeStyle=orthogonalEdgeStyle;rounded=0;orthogonalLoop=1;jettySize=auto;html=1;entryX=1;entryY=0.5;entryDx=0;entryDy=0;" edge="1" parent="1" source="lBy6JVBBChG7RYKzFE5o-8" target="lBy6JVBBChG7RYKzFE5o-147">
          <mxGeometry relative="1" as="geometry">
            <mxPoint x="410" y="910" as="targetPoint" />
            <Array as="points">
              <mxPoint x="440" y="340" />
              <mxPoint x="440" y="1040" />
            </Array>
          </mxGeometry>
        </mxCell>
        <mxCell id="lBy6JVBBChG7RYKzFE5o-8" value="Display &quot;you dont colafy&quot;" style="shape=parallelogram;perimeter=parallelogramPerimeter;whiteSpace=wrap;html=1;fixedSize=1;" vertex="1" parent="1">
          <mxGeometry x="240" y="310" width="120" height="60" as="geometry" />
        </mxCell>
        <mxCell id="lBy6JVBBChG7RYKzFE5o-138" value="yes" style="edgeStyle=orthogonalEdgeStyle;rounded=0;orthogonalLoop=1;jettySize=auto;html=1;" edge="1" parent="1" source="lBy6JVBBChG7RYKzFE5o-133" target="lBy6JVBBChG7RYKzFE5o-137">
          <mxGeometry relative="1" as="geometry" />
        </mxCell>
        <mxCell id="lBy6JVBBChG7RYKzFE5o-140" value="no" style="edgeStyle=orthogonalEdgeStyle;rounded=0;orthogonalLoop=1;jettySize=auto;html=1;entryX=0.5;entryY=0;entryDx=0;entryDy=0;" edge="1" parent="1" source="lBy6JVBBChG7RYKzFE5o-133" target="lBy6JVBBChG7RYKzFE5o-139">
          <mxGeometry relative="1" as="geometry" />
        </mxCell>
        <mxCell id="lBy6JVBBChG7RYKzFE5o-133" value="&lt;div&gt;Else IF&lt;/div&gt;costomerPeriod &amp;gt;=5 and &amp;lt;10&lt;div&gt;and&lt;/div&gt;&lt;div&gt;numberOfRentals &amp;gt;=25 and &amp;lt;50&lt;/div&gt;" style="rhombus;whiteSpace=wrap;html=1;" vertex="1" parent="1">
          <mxGeometry x="20" y="440" width="160" height="120" as="geometry" />
        </mxCell>
        <mxCell id="lBy6JVBBChG7RYKzFE5o-150" style="edgeStyle=orthogonalEdgeStyle;rounded=0;orthogonalLoop=1;jettySize=auto;html=1;" edge="1" parent="1" source="lBy6JVBBChG7RYKzFE5o-137">
          <mxGeometry relative="1" as="geometry">
            <mxPoint x="440" y="500" as="targetPoint" />
          </mxGeometry>
        </mxCell>
        <mxCell id="lBy6JVBBChG7RYKzFE5o-137" value="Display &quot;you qualify for 1 bronze tier book&quot;" style="shape=parallelogram;perimeter=parallelogramPerimeter;whiteSpace=wrap;html=1;fixedSize=1;" vertex="1" parent="1">
          <mxGeometry x="240" y="470" width="120" height="60" as="geometry" />
        </mxCell>
        <mxCell id="lBy6JVBBChG7RYKzFE5o-142" value="yes" style="edgeStyle=orthogonalEdgeStyle;rounded=0;orthogonalLoop=1;jettySize=auto;html=1;entryX=0;entryY=0.5;entryDx=0;entryDy=0;" edge="1" parent="1" source="lBy6JVBBChG7RYKzFE5o-139" target="lBy6JVBBChG7RYKzFE5o-141">
          <mxGeometry relative="1" as="geometry" />
        </mxCell>
        <mxCell id="lBy6JVBBChG7RYKzFE5o-144" value="no" style="edgeStyle=orthogonalEdgeStyle;rounded=0;orthogonalLoop=1;jettySize=auto;html=1;entryX=0.5;entryY=0;entryDx=0;entryDy=0;" edge="1" parent="1" source="lBy6JVBBChG7RYKzFE5o-139" target="lBy6JVBBChG7RYKzFE5o-143">
          <mxGeometry relative="1" as="geometry" />
        </mxCell>
        <mxCell id="lBy6JVBBChG7RYKzFE5o-139" value="&lt;div&gt;Else IF&lt;/div&gt;costomerPeriod &amp;gt;=10 and &amp;lt;15&lt;div&gt;and&lt;/div&gt;&lt;div&gt;numberOfRentals &amp;gt;=50 and &amp;lt;75&lt;/div&gt;" style="rhombus;whiteSpace=wrap;html=1;" vertex="1" parent="1">
          <mxGeometry x="20" y="600" width="160" height="120" as="geometry" />
        </mxCell>
        <mxCell id="lBy6JVBBChG7RYKzFE5o-151" style="edgeStyle=orthogonalEdgeStyle;rounded=0;orthogonalLoop=1;jettySize=auto;html=1;" edge="1" parent="1" source="lBy6JVBBChG7RYKzFE5o-141">
          <mxGeometry relative="1" as="geometry">
            <mxPoint x="440" y="660" as="targetPoint" />
          </mxGeometry>
        </mxCell>
        <mxCell id="lBy6JVBBChG7RYKzFE5o-141" value="Display &quot;you qualify for 3 bronze and 1 silwer tier book&quot;" style="shape=parallelogram;perimeter=parallelogramPerimeter;whiteSpace=wrap;html=1;fixedSize=1;" vertex="1" parent="1">
          <mxGeometry x="240" y="630" width="120" height="60" as="geometry" />
        </mxCell>
        <mxCell id="lBy6JVBBChG7RYKzFE5o-146" value="yes" style="edgeStyle=orthogonalEdgeStyle;rounded=0;orthogonalLoop=1;jettySize=auto;html=1;entryX=0;entryY=0.5;entryDx=0;entryDy=0;" edge="1" parent="1" source="lBy6JVBBChG7RYKzFE5o-143" target="lBy6JVBBChG7RYKzFE5o-145">
          <mxGeometry relative="1" as="geometry" />
        </mxCell>
        <mxCell id="lBy6JVBBChG7RYKzFE5o-148" style="edgeStyle=orthogonalEdgeStyle;rounded=0;orthogonalLoop=1;jettySize=auto;html=1;entryX=0.5;entryY=0;entryDx=0;entryDy=0;" edge="1" parent="1" source="lBy6JVBBChG7RYKzFE5o-143" target="lBy6JVBBChG7RYKzFE5o-147">
          <mxGeometry relative="1" as="geometry" />
        </mxCell>
        <mxCell id="lBy6JVBBChG7RYKzFE5o-143" value="&lt;div&gt;Else IF&lt;/div&gt;costomerPeriod &amp;gt;=15&amp;nbsp;&lt;div&gt;and&lt;/div&gt;&lt;div&gt;numberOfRentals &amp;gt;=75&amp;nbsp;&lt;/div&gt;" style="rhombus;whiteSpace=wrap;html=1;" vertex="1" parent="1">
          <mxGeometry x="20" y="760" width="160" height="120" as="geometry" />
        </mxCell>
        <mxCell id="lBy6JVBBChG7RYKzFE5o-152" style="edgeStyle=orthogonalEdgeStyle;rounded=0;orthogonalLoop=1;jettySize=auto;html=1;" edge="1" parent="1" source="lBy6JVBBChG7RYKzFE5o-145">
          <mxGeometry relative="1" as="geometry">
            <mxPoint x="440" y="820" as="targetPoint" />
          </mxGeometry>
        </mxCell>
        <mxCell id="lBy6JVBBChG7RYKzFE5o-145" value="Display &quot;you qualify for 5 bronze and 2 silwer and 1 gold tier book&quot;" style="shape=parallelogram;perimeter=parallelogramPerimeter;whiteSpace=wrap;html=1;fixedSize=1;" vertex="1" parent="1">
          <mxGeometry x="240" y="790" width="120" height="60" as="geometry" />
        </mxCell>
        <mxCell id="lBy6JVBBChG7RYKzFE5o-147" value="End" style="ellipse;whiteSpace=wrap;html=1;" vertex="1" parent="1">
          <mxGeometry x="40" y="1000" width="120" height="80" as="geometry" />
        </mxCell>
      </root>
    </mxGraphModel>
  </diagram>
</mxfile>
